<?xml version="1.0" standalone="no"?>
<!DOCTYPE svg PUBLIC "-//W3C//DTD SVG 20010904//EN"
 "http://www.w3.org/TR/2001/REC-SVG-20010904/DTD/svg10.dtd">
<svg version="1.0" xmlns="http://www.w3.org/2000/svg"
 width="2000.000000pt" height="1500.000000pt" viewBox="0 0 2000.000000 1500.000000"
 preserveAspectRatio="xMidYMid meet">

<g transform="translate(0.000000,1500.000000) scale(0.100000,-0.100000)"
fill="#000000" stroke="none">
<path d="M9695 11961 c-269 -102 -447 -186 -564 -264 -46 -32 -85 -57 -86 -57
0 0 2 33 7 72 11 108 -3 139 -55 119 -12 -5 -74 -57 -136 -115 -63 -59 -134
-119 -158 -132 -40 -24 -48 -25 -126 -19 -144 12 -257 -30 -374 -139 -65 -60
-122 -143 -142 -207 -11 -33 -16 -37 -59 -43 -26 -3 -94 -1 -152 5 -120 13
-204 8 -246 -14 -56 -29 -301 -253 -575 -525 -300 -296 -289 -281 -353 -464
-41 -114 -74 -157 -255 -333 -440 -427 -477 -469 -573 -660 -101 -200 -155
-411 -228 -890 -22 -148 -47 -304 -55 -345 l-14 -76 89 -177 c144 -289 231
-531 279 -781 26 -134 26 -151 0 -177 -17 -17 -29 -20 -60 -16 l-39 5 0 -106
c0 -208 0 -206 270 -817 193 -437 307 -716 366 -898 31 -93 42 -117 57 -117
28 0 72 -26 101 -60 27 -32 35 -58 80 -245 52 -219 175 -413 320 -506 110 -72
149 -81 361 -89 223 -8 256 -18 369 -103 137 -105 273 -155 437 -162 l95 -4
245 -127 c263 -136 352 -186 441 -246 65 -43 101 -48 135 -16 l23 21 0 -71 c0
-40 3 -72 8 -72 4 0 79 9 167 19 483 58 852 51 1130 -23 69 -18 86 -19 125 -9
124 32 246 8 419 -84 118 -61 186 -77 214 -48 17 16 16 27 0 71 -7 18 105 61
231 88 177 39 179 38 245 -49 41 -54 92 -95 119 -95 8 0 12 23 12 80 0 140 34
168 188 156 l85 -6 -7 57 c-11 105 -5 116 178 307 91 95 190 190 220 211 l54
37 77 -79 77 -78 -6 48 c-7 62 -38 120 -97 185 -27 30 -49 57 -49 62 0 15 25
27 109 55 98 32 161 31 211 -5 l32 -23 -17 32 c-40 77 3 112 148 121 72 5 111
12 129 24 34 22 64 86 73 154 6 49 15 63 109 175 249 298 392 518 561 862 81
164 230 515 218 515 -3 0 -34 -23 -69 -51 -85 -67 -174 -166 -241 -267 -30
-45 -64 -87 -75 -93 -20 -11 -57 -9 -88 5 -12 4 -21 -13 -42 -77 l-27 -82 2
63 c1 34 0 62 -3 62 -3 0 -57 -41 -120 -91 -379 -300 -917 -693 -1297 -947
-275 -184 -308 -202 -363 -202 -42 0 -81 27 -107 74 -10 17 -15 15 -72 -33
-37 -30 -72 -51 -86 -51 -30 0 -49 33 -41 72 l6 29 -82 -3 -82 -3 -24 -49
c-24 -49 -25 -49 -41 -29 -9 11 -21 29 -27 39 -17 27 -23 16 -38 -67 -8 -41
-14 -64 -15 -53 -1 26 -23 46 -43 39 -8 -3 -25 -23 -39 -44 l-24 -38 -41 61
c-44 64 -117 140 -96 100 18 -35 31 -107 23 -122 -7 -12 -12 -10 -29 8 l-20
22 -7 -66 c-4 -36 -11 -66 -16 -66 -5 0 -38 -27 -73 -59 -53 -49 -72 -60 -107
-65 -24 -3 -104 -12 -178 -21 -73 -8 -187 -27 -253 -42 l-119 -26 -157 36
c-280 65 -600 114 -887 137 -302 24 -491 81 -728 218 -80 46 -94 58 -80 65 38
20 83 72 89 103 9 46 -3 60 -26 31 -23 -30 -54 -42 -145 -61 l-70 -15 -130
127 c-71 70 -258 247 -415 392 -475 441 -830 800 -954 964 -46 61 -116 205
-186 381 -65 163 -131 315 -137 315 -3 0 -16 -9 -30 -20 -35 -27 -47 -25 -77
10 -38 46 -54 106 -35 138 22 39 43 48 79 35 23 -9 30 -9 30 1 0 7 -20 154
-45 327 -29 199 -44 329 -40 356 3 23 25 81 49 130 24 48 48 104 54 123 6 19
39 282 72 585 33 302 72 606 86 674 35 177 103 373 189 546 130 264 277 464
540 733 207 213 584 562 668 618 76 51 654 392 792 466 228 124 444 211 651
264 215 54 312 65 609 70 252 5 273 7 315 27 69 34 90 83 90 215 l0 104 -30
-7 c-50 -11 -85 3 -167 67 -68 53 -151 100 -171 97 -4 0 -110 -40 -237 -88z
m-3397 -5714 c12 -13 45 -77 73 -143 29 -65 60 -131 70 -146 27 -38 24 -41
-18 -19 -61 31 -83 61 -94 130 -5 35 -25 94 -45 132 -36 72 -29 92 14 46z
m-96 -73 c14 -43 27 -85 27 -92 1 -8 -20 12 -46 45 -26 32 -51 60 -55 61 -25
11 10 78 36 69 6 -2 23 -39 38 -83z"/>
<path d="M11272 11751 l-104 -6 -37 -41 c-21 -22 -40 -46 -42 -53 -4 -12 -9
-12 -29 0 -18 10 -59 14 -148 12 -104 -1 -130 -5 -168 -23 -81 -40 -119 -126
-94 -217 10 -37 28 -63 79 -113 119 -117 296 -189 519 -211 134 -13 134 -13
402 -177 219 -134 456 -296 937 -639 418 -298 418 -298 468 -298 39 1 71 11
136 43 47 23 87 42 89 42 3 0 5 -44 6 -97 1 -115 21 -197 95 -385 56 -141 94
-193 189 -258 77 -52 135 -120 161 -189 28 -74 30 -199 5 -300 l-19 -74 48
-91 c93 -179 214 -335 338 -433 22 -18 27 -29 27 -67 0 -109 52 -149 111 -85
16 17 29 27 29 22 0 -5 -7 -63 -15 -128 -24 -184 -30 -368 -15 -453 6 -40 13
-72 15 -70 2 2 10 77 20 168 28 276 71 499 133 683 16 48 26 87 22 87 -17 0
-62 -45 -86 -86 -24 -41 -50 -64 -72 -64 -5 0 -12 91 -16 203 -7 216 -16 312
-68 727 l-32 265 -455 728 c-490 786 -515 821 -698 980 -242 211 -510 367
-827 482 -318 114 -501 138 -904 116z"/>
<path d="M9092 8847 c-144 -144 -262 -269 -262 -278 0 -9 34 -49 75 -88 71
-68 77 -71 123 -71 l47 0 135 -135 134 -135 -31 -32 c-59 -63 -68 -113 -32
-178 20 -35 49 -54 112 -74 10 -3 17 -15 17 -30 0 -39 55 -95 106 -108 34 -9
44 -17 44 -33 0 -50 76 -125 128 -125 16 0 22 -6 22 -24 0 -34 40 -88 80 -109
52 -27 110 -18 162 25 l43 35 43 -34 c24 -18 54 -36 68 -39 70 -18 156 38 169
109 6 29 12 37 29 37 51 0 126 75 126 126 0 17 8 23 38 28 51 8 89 44 104 100
9 36 17 46 33 46 28 0 80 34 100 64 39 59 24 148 -34 200 l-22 20 133 133 133
133 48 0 c47 0 52 3 123 72 41 39 74 79 74 87 0 24 -521 541 -545 541 -12 0
-58 -38 -115 -95 l-95 -95 18 -33 19 -32 -36 -32 c-60 -55 -105 -56 -170 -3
-64 50 -141 52 -210 5 l-36 -24 -37 25 c-33 23 -46 25 -104 22 -55 -3 -72 -9
-109 -36 -63 -46 -108 -44 -163 7 -40 38 -41 40 -24 58 9 11 17 28 17 39 0 26
-169 194 -195 194 -13 0 -112 -92 -283 -263z m173 -147 c-118 -118 -222 -216
-230 -218 -8 -2 -36 17 -62 42 l-48 45 225 226 225 225 53 -53 52 -53 -215
-214z m1752 -176 c-26 -25 -54 -44 -62 -42 -8 2 -112 100 -230 218 l-215 214
52 53 53 53 225 -225 225 -226 -48 -45z m-1421 190 c65 -27 135 -13 192 40 17
15 37 21 68 21 44 0 45 -1 206 -163 l163 -163 -33 -29 c-18 -17 -42 -30 -53
-30 -14 0 -67 45 -149 125 -70 69 -131 125 -136 125 -4 0 -108 -100 -231 -222
l-223 -223 -130 130 -130 130 172 172 172 172 39 -35 c22 -20 54 -42 73 -50z
m1082 -87 l172 -172 -112 -111 c-62 -61 -121 -116 -131 -123 -15 -12 -26 -5
-91 57 -79 75 -127 98 -181 88 -61 -12 -115 -73 -115 -131 0 -21 -5 -25 -27
-25 -52 0 -123 -71 -123 -123 0 -9 -14 -17 -37 -22 -47 -9 -99 -60 -108 -107
-6 -30 -12 -37 -38 -42 -48 -10 -95 -51 -108 -96 -19 -64 0 -109 86 -199 l75
-78 -28 -26 c-34 -33 -68 -34 -99 -5 -26 25 -29 54 -8 82 35 46 -4 92 -50 62
-70 -46 -149 26 -100 90 34 45 -4 90 -50 60 -33 -22 -71 -20 -95 4 -24 24 -25
49 -3 88 22 38 12 62 -26 62 -16 0 -33 -4 -36 -10 -10 -16 -67 -12 -87 7 -43
39 -31 54 239 325 l257 257 112 -109 c118 -115 146 -130 215 -115 41 9 139
100 139 129 0 14 -47 68 -135 156 -74 74 -135 138 -135 142 0 11 56 38 80 38
12 0 48 -16 79 -35 99 -62 176 -57 246 15 21 22 42 40 45 40 3 0 83 -78 178
-173z m-166 -464 c111 -111 128 -131 128 -159 0 -40 -22 -64 -59 -64 -21 0
-54 27 -159 133 -73 74 -132 141 -132 149 0 8 9 27 21 42 38 49 60 38 201
-101z m-144 -156 c78 -79 132 -142 132 -153 0 -35 -29 -64 -64 -64 -28 0 -49
17 -164 133 -73 74 -132 141 -132 149 0 28 40 68 69 68 21 0 54 -27 159 -133z
m-146 -146 c137 -137 149 -160 108 -201 -42 -42 -65 -29 -202 108 -105 105
-128 133 -128 157 0 38 26 65 64 65 26 0 50 -19 158 -129z m-155 -153 c139
-139 152 -161 116 -200 -9 -10 -30 -18 -46 -18 -25 0 -51 21 -159 127 -106
106 -128 133 -128 157 0 37 26 66 59 66 20 0 57 -31 158 -132z"/>
<path d="M7630 7110 c-71 -15 -166 -67 -204 -112 -48 -55 -70 -125 -63 -198
12 -136 84 -197 347 -295 204 -76 282 -126 309 -198 15 -40 14 -141 -3 -180
-19 -48 -88 -102 -154 -122 -64 -21 -176 -24 -238 -7 -88 25 -176 109 -191
182 -5 28 -8 30 -55 30 l-50 0 7 -37 c10 -58 64 -150 105 -183 102 -80 226
-111 375 -92 209 27 317 141 318 337 1 70 -3 87 -28 133 -52 96 -111 133 -352
222 -164 60 -238 101 -270 149 -30 44 -30 110 -2 168 52 108 253 152 426 92
l54 -18 8 22 c25 66 26 64 -36 87 -66 25 -228 36 -303 20z"/>
<path d="M9090 6505 l0 -595 50 0 50 0 0 595 0 595 -50 0 -50 0 0 -595z"/>
<path d="M9452 6508 l3 -593 48 -3 47 -3 0 595 0 596 -50 0 -50 0 2 -592z"/>
<path d="M9820 6505 l0 -595 280 0 280 0 0 45 0 45 -235 0 -235 0 0 260 0 260
149 0 149 0 15 45 16 45 -162 2 -162 3 -3 197 -2 198 237 2 238 3 3 43 3 42
-285 0 -286 0 0 -595z"/>
<path d="M8501 6770 c-96 -21 -180 -94 -206 -182 -18 -61 -22 -468 -5 -529 38
-136 191 -197 386 -154 43 9 100 28 126 41 l48 24 -17 36 c-12 24 -22 34 -33
30 -8 -3 -46 -17 -85 -30 -80 -29 -195 -35 -248 -12 -65 28 -97 95 -97 207 l0
38 53 5 c52 6 402 26 445 26 22 0 22 1 22 143 0 164 -11 212 -65 274 -20 23
-56 50 -86 62 -59 26 -169 35 -238 21z m198 -99 c75 -39 100 -93 101 -222 l0
-87 -32 -5 c-18 -3 -116 -9 -217 -13 l-184 -7 6 107 c7 124 27 178 79 213 67
45 174 51 247 14z"/>
<path d="M10840 6742 l0 -39 63 -5 c114 -9 178 -61 193 -156 l7 -42 -44 25
c-119 68 -297 87 -395 41 -102 -47 -128 -118 -122 -330 4 -129 6 -145 31 -193
33 -63 77 -96 172 -126 61 -19 89 -22 215 -20 80 1 165 6 190 10 l45 9 3 224
c3 277 -9 443 -37 498 -41 80 -123 123 -258 137 l-63 7 0 -40z m104 -259 c28
-8 75 -24 104 -35 l52 -19 0 -218 0 -218 -31 -7 c-60 -12 -234 -6 -287 9 -58
18 -105 53 -130 99 -25 46 -24 287 1 333 43 79 145 99 291 56z"/>
<path d="M11514 6769 c-56 -16 -127 -71 -151 -118 -44 -84 -22 -201 48 -253
49 -37 87 -55 202 -94 177 -61 217 -96 217 -188 0 -85 -77 -138 -202 -139
-108 0 -195 51 -214 127 -5 23 -11 26 -50 26 -39 0 -44 -2 -44 -23 0 -42 50
-125 93 -157 63 -46 133 -63 246 -58 85 3 103 7 151 34 128 72 159 239 64 344
-40 44 -95 73 -229 119 -141 50 -187 78 -204 127 -8 22 -11 52 -8 66 17 67
101 118 192 118 37 0 98 -14 147 -35 13 -5 21 2 32 30 9 21 16 39 16 41 0 1
-25 12 -55 23 -60 23 -191 28 -251 10z"/>
<path d="M12273 6770 c-95 -20 -172 -84 -203 -167 -18 -48 -20 -78 -20 -285 0
-250 5 -286 51 -341 81 -99 290 -113 465 -33 l54 25 -17 36 c-12 25 -22 35
-33 31 -8 -3 -49 -17 -90 -32 -94 -33 -221 -32 -266 2 -53 39 -65 66 -71 152
l-6 80 54 6 c54 6 404 26 447 26 22 0 22 2 22 138 0 162 -13 219 -64 279 -21
23 -57 49 -87 62 -58 26 -169 35 -236 21z m196 -103 c78 -38 100 -90 101 -229
l0 -76 -37 -6 c-21 -3 -119 -8 -217 -12 l-179 -7 5 111 c5 90 10 117 29 151
53 94 186 125 298 68z"/>
</g>
</svg>
